<svg width="176" height="216" viewBox="0 0 176 216" fill="none" xmlns="http://www.w3.org/2000/svg">
<path d="M103.38 1.84838C102.394 1.02845 101.225 0.457651 99.9719 0.184096C98.7189 -0.0894599 97.4185 -0.0577495 96.1803 0.276552C94.9421 0.610854 93.8024 1.23795 92.8574 2.10497C91.9123 2.97199 91.1895 4.05352 90.75 5.25838L68.75 65.6684L44.59 42.2584C43.7786 41.4714 42.8097 40.8653 41.7471 40.4801C40.6844 40.0948 39.5522 39.9391 38.425 40.0232C37.2979 40.1072 36.2013 40.4292 35.2076 40.9679C34.2139 41.5066 33.3456 42.2498 32.66 43.1484C11 71.5284 0 100.078 0 127.998C0 151.337 9.2714 173.721 25.7746 190.224C42.2778 206.727 64.6609 215.998 88 215.998C111.339 215.998 133.722 206.727 150.225 190.224C166.729 173.721 176 151.337 176 127.998C176 68.5484 125.21 19.9984 103.38 1.84838Z" fill="#F5487F"/>
<path d="M128.971 119.451C128.991 119.186 128.991 118.919 128.971 118.653L120.573 97.656C120.246 96.826 119.662 96.1221 118.907 95.6463C118.152 95.1706 117.265 94.9478 116.375 95.0103H57.5956C56.7547 95.0095 55.933 95.2612 55.2368 95.733C54.5406 96.2047 54.0021 96.8746 53.6909 97.656L45.2939 118.653C45.2737 118.919 45.2737 119.186 45.2939 119.451C45.1544 119.685 45.055 119.941 45 120.207C45.0467 123.11 45.8449 125.951 47.3165 128.454C48.7882 130.956 50.8831 133.034 53.3971 134.485V174.801C53.3971 175.914 53.8394 176.982 54.6268 177.77C55.4141 178.558 56.4821 179 57.5956 179H116.375C117.488 179 118.556 178.558 119.344 177.77C120.131 176.982 120.573 175.914 120.573 174.801V134.653C123.112 133.188 125.222 131.083 126.695 128.549C128.168 126.014 128.953 123.139 128.971 120.207C129.01 119.957 129.01 119.702 128.971 119.451ZM91.1838 170.601H82.7867V153.803H91.1838V170.601ZM112.176 170.601H99.5808V149.604C99.5808 148.49 99.1385 147.422 98.3511 146.634C97.5637 145.847 96.4958 145.404 95.3823 145.404H78.5882C77.4747 145.404 76.4068 145.847 75.6194 146.634C74.832 147.422 74.3897 148.49 74.3897 149.604V170.601H61.7941V137.005C64.185 136.992 66.5455 136.468 68.7177 135.468C70.8899 134.469 72.8236 133.017 74.3897 131.21C75.9657 132.997 77.9039 134.429 80.0755 135.409C82.2472 136.39 84.6026 136.897 86.9853 136.897C89.3679 136.897 91.7233 136.39 93.895 135.409C96.0666 134.429 98.0048 132.997 99.5808 131.21C101.147 133.017 103.081 134.469 105.253 135.468C107.425 136.468 109.785 136.992 112.176 137.005V170.601ZM112.176 128.606C109.949 128.606 107.814 127.721 106.239 126.146C104.664 124.571 103.779 122.435 103.779 120.207C103.779 119.093 103.337 118.025 102.55 117.238C101.762 116.45 100.694 116.008 99.5808 116.008C98.4673 116.008 97.3994 116.45 96.612 117.238C95.8246 118.025 95.3823 119.093 95.3823 120.207C95.3823 122.435 94.4976 124.571 92.9229 126.146C91.3481 127.721 89.2123 128.606 86.9853 128.606C84.7582 128.606 82.6224 127.721 81.0476 126.146C79.4729 124.571 78.5882 122.435 78.5882 120.207C78.5882 119.093 78.1459 118.025 77.3585 117.238C76.5711 116.45 75.5032 116.008 74.3897 116.008C73.2762 116.008 72.2083 116.45 71.4209 117.238C70.6335 118.025 70.1912 119.093 70.1912 120.207C70.2325 121.31 70.0563 122.41 69.6725 123.445C69.2887 124.48 68.7049 125.429 67.9544 126.238C67.2039 127.048 66.3014 127.701 65.2984 128.161C64.2955 128.622 63.2117 128.88 62.109 128.921C59.882 129.005 57.713 128.2 56.0791 126.684C55.2702 125.933 54.6169 125.03 54.1567 124.027C53.6965 123.024 53.4384 121.94 53.3971 120.837L60.4506 103.409H113.52L120.573 120.837C120.414 122.954 119.46 124.932 117.902 126.373C116.344 127.814 114.299 128.612 112.176 128.606Z" fill="white"/>
</svg>
